<?xml version="1.0" standalone="no"?>
<!DOCTYPE svg PUBLIC "-//W3C//DTD SVG 20010904//EN"
 "http://www.w3.org/TR/2001/REC-SVG-20010904/DTD/svg10.dtd">
<svg version="1.0" xmlns="http://www.w3.org/2000/svg"
 width="222.000000pt" height="227.000000pt" viewBox="0 0 222.000000 227.000000"
 preserveAspectRatio="xMidYMid meet">

<g transform="translate(0.000000,227.000000) scale(0.100000,-0.100000)"
fill="#000000" stroke="none">
<path d="M1110 2109 c-25 -5 -52 -12 -60 -15 -8 -4 -20 -8 -27 -10 -48 -10
-97 -33 -153 -73 -36 -26 -79 -53 -97 -60 -18 -7 -39 -24 -48 -37 -19 -30 -20
-44 0 -18 8 10 15 14 15 8 0 -6 -9 -19 -20 -29 -11 -10 -20 -26 -20 -36 0 -10
-4 -21 -10 -24 -15 -10 -12 18 6 43 13 19 13 22 0 22 -9 0 -19 -15 -26 -39 -5
-21 -16 -41 -24 -44 -8 -3 -20 -23 -26 -44 -7 -21 -18 -41 -24 -45 -6 -4 6 -5
27 -1 36 5 37 5 37 -25 0 -17 -10 -50 -22 -73 -19 -36 -23 -39 -33 -25 -7 9
-10 28 -8 44 3 19 2 23 -5 13 -10 -14 -10 -16 2 -70 6 -25 11 -30 17 -20 6 10
9 6 9 -13 0 -15 7 -31 17 -36 11 -7 14 -15 8 -28 -5 -11 -9 -23 -9 -28 -1 -5
-12 -10 -26 -11 -27 -3 -70 30 -70 52 0 8 -4 11 -10 8 -6 -3 -7 1 -4 9 10 26
29 18 45 -16 8 -17 21 -33 29 -35 10 -3 9 -1 -2 7 -22 13 -23 30 -3 30 35 0
11 27 -39 44 -45 16 -57 16 -77 5 -20 -11 -21 -14 -7 -17 10 -2 18 -5 18 -7 0
-2 -7 -36 -15 -75 -11 -50 -12 -77 -5 -90 11 -21 5 -29 -48 -61 -28 -16 -32
-22 -22 -34 7 -8 17 -12 23 -8 6 3 7 1 3 -6 -6 -9 -11 -9 -23 0 -11 10 -16 10
-22 0 -4 -6 -14 -11 -22 -9 -10 2 -13 -5 -11 -24 4 -37 -7 -35 -41 4 l-29 33
26 -39 c29 -46 26 -58 -7 -30 -45 40 -58 48 -55 34 2 -7 -2 -14 -9 -17 -7 -3
-11 3 -9 14 3 14 -3 18 -28 20 l-31 2 30 -15 30 -14 -32 5 c-33 5 -63 -2 -63
-14 0 -3 27 -6 60 -6 33 1 60 -3 60 -8 0 -4 5 -5 10 -2 6 3 10 0 10 -7 0 -9 3
-9 10 2 8 13 10 12 10 -2 0 -10 8 -18 18 -19 14 0 14 -2 -3 -9 -27 -12 -43
-12 -25 0 13 9 13 10 0 10 -26 0 -92 -21 -86 -27 3 -4 -4 -18 -16 -32 l-23
-25 31 22 c37 25 105 36 97 16 -3 -8 -1 -14 5 -14 6 0 13 6 15 13 3 7 6 4 6
-6 1 -14 6 -17 24 -12 17 5 19 4 7 -4 -8 -6 -10 -11 -5 -11 6 0 -8 -17 -30
-38 -23 -20 -34 -32 -25 -25 8 6 27 16 43 22 21 8 27 8 27 -4 0 -7 -8 -16 -17
-19 -10 -4 -29 -16 -43 -27 l-25 -20 32 15 c40 20 49 20 57 1 4 -10 -2 -19
-17 -24 -12 -5 -31 -19 -42 -32 l-20 -24 25 21 c14 12 35 25 48 29 18 5 21 11
16 32 -4 14 -7 56 -7 92 1 105 1 103 21 92 13 -7 18 -24 20 -72 2 -35 8 -70
13 -79 6 -10 7 -4 3 18 l-7 32 49 1 c27 1 60 5 74 9 15 6 -3 7 -49 3 l-73 -6
7 24 c4 13 18 35 31 48 22 24 23 24 17 3 -7 -30 16 -37 61 -18 26 11 36 21 36
38 0 18 2 20 9 9 8 -12 12 -12 25 -2 9 8 16 19 15 25 0 7 -2 6 -6 -1 -2 -7 -9
-13 -15 -13 -6 0 -7 8 -4 17 4 9 1 20 -5 24 -7 4 -13 24 -15 46 -3 55 -3 55
-16 47 -7 -5 -8 -3 -3 6 6 11 10 10 19 -2 17 -22 48 -31 57 -16 14 23 4 -35
-10 -62 -10 -17 -11 -25 -2 -28 6 -2 11 -11 12 -20 0 -11 2 -12 6 -4 2 6 9 10
14 6 13 -8 11 10 -3 24 -9 9 -8 15 8 27 23 17 38 19 28 3 -5 -8 -2 -9 10 -5
10 4 15 3 11 -3 -4 -6 -12 -9 -19 -8 -12 3 -16 -3 -16 -28 0 -8 4 -13 9 -9 5
3 12 1 16 -4 3 -6 13 -7 22 -4 10 4 14 2 9 -5 -3 -6 -2 -13 3 -16 12 -8 103
12 111 23 3 4 21 10 41 14 31 4 36 3 34 -11 -2 -9 -4 -21 -4 -25 -1 -5 -29
-35 -63 -68 -34 -32 -58 -62 -53 -66 4 -5 10 -2 12 5 3 6 12 12 21 12 10 0 26
7 36 15 23 17 72 20 81 5 3 -5 12 -10 18 -10 20 1 -25 30 -47 31 -21 0 -21 1
-1 9 14 6 15 9 5 10 -9 0 -6 6 10 15 29 16 38 12 21 -9 -11 -13 -8 -14 21 -6
18 6 51 10 73 10 24 0 35 3 27 8 -9 6 -6 11 11 19 22 10 29 7 66 -31 l42 -43
-46 -12 c-26 -7 -50 -10 -52 -7 -3 3 -28 -4 -57 -14 -28 -11 -60 -20 -71 -20
-18 -1 -65 -31 -65 -43 0 -3 12 -7 26 -10 19 -3 24 -1 20 10 -5 12 6 13 64 7
48 -4 74 -3 84 5 9 7 36 11 68 8 l53 -3 -57 -2 c-32 -1 -58 -6 -58 -12 0 -5 9
-10 21 -10 12 0 17 -4 14 -11 -4 -6 -24 -8 -49 -5 -28 4 -35 3 -21 -3 19 -8
19 -9 -5 -15 -14 -4 -38 -2 -54 3 -15 6 -41 11 -57 11 -17 0 -40 5 -51 11 -12
7 -24 7 -29 2 -6 -6 17 -14 60 -22 38 -7 78 -19 88 -26 10 -8 26 -15 36 -15
23 0 22 -17 -3 -25 -25 -8 -41 1 -33 20 6 18 -8 19 -50 2 -36 -14 -116 -23
-104 -11 4 4 -3 18 -15 31 l-23 24 30 -11 c16 -6 35 -16 42 -22 8 -6 16 -8 19
-5 3 3 -12 15 -35 26 -30 16 -50 19 -78 14 -21 -3 -46 -6 -55 -7 -21 0 -25
-16 -4 -16 21 0 28 -29 14 -66 -12 -34 -13 -34 -74 -34 -57 0 -64 2 -88 31
-31 37 -31 39 -6 84 11 20 20 38 20 40 0 3 -16 5 -35 5 -20 0 -35 5 -35 12 0
13 -14 2 -16 -13 -1 -5 -2 -11 -3 -14 0 -2 -11 -1 -23 4 -48 17 -49 -1 -3 -50
25 -26 45 -53 45 -60 0 -13 -80 -4 -115 13 -18 8 -18 8 -3 -5 10 -7 50 -19 90
-27 40 -7 84 -18 98 -25 14 -7 31 -10 39 -7 10 3 12 0 7 -13 -5 -15 -4 -16 9
-5 24 20 25 10 4 -55 -13 -42 -15 -61 -7 -66 6 -4 8 -16 5 -28 -3 -12 0 -21 7
-21 6 0 16 -10 21 -22 6 -12 22 -30 37 -41 24 -18 38 -22 91 -26 24 -1 22 -22
-3 -28 -19 -5 -19 -6 -3 -18 16 -12 13 -13 -22 -8 -22 3 -45 9 -52 15 -13 10
-29 -25 -18 -42 12 -20 84 -28 228 -28 l149 0 34 31 c20 16 48 55 64 86 27 55
80 210 83 244 2 22 8 22 54 -5 26 -16 34 -17 25 -6 -7 9 -25 21 -41 28 -26 10
-57 54 -53 72 1 5 -1 7 -6 7 -4 -1 -13 -1 -20 0 -20 2 5 41 26 40 16 -1 16 -2
0 -6 -10 -2 -18 -9 -18 -15 0 -5 6 -8 14 -5 8 3 17 1 20 -6 2 -7 5 -5 5 4 1
23 26 31 57 19 14 -6 37 -10 50 -10 16 0 24 -5 21 -12 -2 -7 -11 -11 -18 -9
-8 3 -24 5 -36 5 -11 1 -19 4 -16 9 7 12 -12 8 -25 -5 -8 -8 -12 -9 -12 -1 0
6 6 14 13 16 7 4 8 6 1 6 -7 1 -19 -10 -27 -23 -15 -23 -15 -24 22 -41 32 -14
121 -28 121 -18 0 1 -18 12 -41 23 -23 12 -39 23 -36 26 6 7 107 -47 107 -58
0 -5 -4 -6 -10 -3 -5 3 -10 1 -10 -5 0 -8 -6 -8 -22 0 -22 11 -22 10 -4 -4 11
-9 23 -16 28 -16 14 0 8 -30 -7 -36 -10 -4 -13 -13 -10 -25 4 -11 2 -19 -4
-19 -6 0 -11 -12 -11 -27 0 -24 -48 -82 -93 -110 -7 -5 -17 -23 -24 -41 l-12
-34 32 25 c18 14 60 40 95 58 l63 32 29 -22 c27 -20 30 -20 30 -4 0 10 3 34 6
54 5 28 1 41 -20 66 -21 24 -26 42 -26 82 0 56 14 66 45 31 22 -24 38 -25 56
-4 7 9 24 20 37 25 12 5 28 22 33 39 9 25 14 28 39 23 25 -4 30 -2 34 18 3 13
5 31 4 39 -4 42 1 51 23 40 28 -16 35 -5 22 31 -11 27 -10 29 8 24 24 -8 24 5
2 31 -28 30 -44 67 -45 102 -1 18 -7 37 -14 43 -11 9 -11 16 1 40 8 15 15 35
15 44 0 8 5 15 11 15 6 0 9 9 6 19 -3 14 2 21 19 25 13 4 24 11 24 17 0 6 -6
7 -12 3 -10 -5 -10 -4 -1 6 13 14 7 40 -9 40 -6 0 -8 -7 -5 -15 8 -19 -5 -26
-23 -14 -13 8 -12 12 4 24 15 11 16 15 5 16 -8 1 -19 2 -25 3 -7 0 -23 13 -37
28 -24 25 -24 28 -7 43 16 15 18 14 24 -1 4 -10 2 -20 -3 -24 -6 -3 -2 -13 9
-23 14 -11 20 -13 20 -4 0 9 3 8 9 -2 7 -10 9 -11 13 -1 2 8 11 14 20 16 11 1
15 -3 11 -13 -5 -12 -7 -12 -14 -1 -7 11 -9 11 -9 -1 0 -8 7 -19 15 -25 8 -6
17 -22 20 -35 2 -12 13 -39 25 -58 25 -43 25 -53 -1 -46 -20 6 -20 5 -6 -30
16 -37 19 -108 5 -118 -5 -3 -4 -18 2 -33 5 -15 10 -70 10 -122 0 -77 -3 -94
-15 -94 -20 0 -19 -8 10 -75 28 -63 28 -76 0 -45 -26 28 -38 25 -33 -10 3 -16
0 -30 -4 -30 -14 0 -38 -27 -38 -41 0 -8 -6 -7 -18 4 -23 21 -42 22 -42 1 0
-25 -41 -76 -56 -70 -8 3 -14 1 -14 -4 0 -22 -63 -140 -73 -138 -7 1 -30 -4
-52 -10 -22 -7 -67 -13 -100 -14 -47 -1 -40 -3 35 -7 52 -3 97 -3 100 0 9 12
69 16 73 5 2 -6 16 11 31 37 15 26 32 47 36 47 24 0 59 -21 65 -39 5 -17 9
-19 25 -9 10 7 22 24 26 38 l7 25 12 -29 12 -29 11 34 c6 19 12 43 14 54 3 18
6 17 36 -12 37 -37 41 -26 17 53 -20 65 -20 80 0 64 19 -16 19 -8 -1 38 -17
39 -18 71 -10 277 4 105 8 131 20 133 12 3 13 9 6 28 -13 34 -13 36 9 24 30
-16 32 -13 16 25 -8 20 -10 33 -6 30 5 -2 11 1 14 9 5 13 -17 54 -37 68 -14 9
20 22 35 13 8 -6 8 -10 -2 -16 -7 -4 -11 -9 -9 -11 3 -2 22 -16 43 -31 38 -29
57 -28 57 0 0 14 2 14 19 -1 16 -14 18 -23 10 -43 -5 -13 -5 -22 0 -19 5 3 12
-1 15 -10 3 -8 2 -12 -4 -9 -6 3 -10 -3 -10 -14 0 -14 5 -19 15 -15 12 5 14
16 9 53 -4 25 -7 52 -7 59 0 6 -3 12 -7 12 -3 0 -6 10 -7 21 l-2 22 15 -22 c8
-11 13 -25 9 -30 -3 -5 0 -13 6 -17 9 -5 10 6 4 42 -4 27 -9 63 -10 80 -4 34
-28 88 -54 118 -15 18 -15 19 2 13 15 -6 14 2 -10 46 -18 32 -35 51 -44 49 -7
-2 -11 0 -7 4 4 4 -2 20 -13 36 -16 22 -26 27 -42 23 -16 -5 -18 -4 -8 3 11 8
7 13 -17 26 -40 21 -42 20 -42 -6 0 -16 3 -19 9 -10 6 11 10 10 19 0 8 -11 7
-14 -8 -15 -40 -3 -42 22 -4 71 81 107 109 193 88 274 -8 28 -46 30 -74 2 -22
-22 -19 -25 12 -9 20 11 21 10 14 -46 -9 -80 -56 -165 -91 -165 -27 0 -44 30
-45 77 0 53 14 85 48 106 27 16 26 16 -41 17 -60 0 -77 5 -160 47 -80 40 -102
47 -167 50 -47 3 -99 -1 -138 -10 -55 -14 -68 -14 -97 -1 -38 15 -58 16 -125
3z m109 -42 c13 4 13 2 -2 -7 -19 -12 -37 -6 -37 13 0 8 3 8 11 0 6 -6 19 -9
28 -6z m326 3 c3 -6 -1 -7 -9 -4 -18 7 -21 14 -7 14 6 0 13 -4 16 -10z m-150
-10 c3 -5 1 -10 -4 -10 -6 0 -11 5 -11 10 0 6 2 10 4 10 3 0 8 -4 11 -10z
m236 -5 c8 -1 26 -9 39 -18 19 -13 21 -17 7 -17 -9 0 -17 5 -17 10 0 6 -5 10
-11 10 -5 0 -7 -5 -3 -12 4 -7 3 -8 -5 -4 -6 4 -8 12 -5 18 4 6 -1 8 -14 4
-13 -4 -22 -1 -26 9 -4 11 -2 14 6 8 7 -4 20 -8 29 -8z m-556 -26 c12 -19 -5
-23 -22 -6 -16 16 -16 17 -1 17 9 0 20 -5 23 -11z m309 -12 c16 -12 14 -13
-18 -9 -20 2 -36 8 -36 13 0 13 34 11 54 -4z m183 -12 c8 -8 19 -13 24 -10 5
4 9 -1 9 -10 0 -14 -3 -14 -27 3 -16 10 -35 22 -43 25 -12 4 -11 6 3 6 10 1
25 -6 34 -14z m-132 -23 c-3 -3 -11 0 -18 7 -9 10 -8 11 6 5 10 -3 15 -9 12
-12z m68 6 c16 -12 15 -13 -7 -13 -13 0 -22 4 -18 9 3 5 -2 6 -12 3 -10 -4
-15 -3 -11 3 8 14 28 13 48 -2z m-609 -12 c-10 -8 -21 -12 -24 -10 -5 6 21 24
34 24 6 0 1 -6 -10 -14z m-49 -16 c-3 -5 -14 -10 -23 -10 -15 0 -15 2 -2 10
20 13 33 13 25 0z m155 0 c0 -5 -2 -10 -4 -10 -3 0 -8 5 -11 10 -3 6 -1 10 4
10 6 0 11 -4 11 -10z m56 -16 c19 -15 19 -16 -1 -9 -11 4 -25 8 -32 8 -7 0
-10 4 -7 9 8 12 18 10 40 -8z m261 -4 c4 -12 3 -12 -5 -2 -5 8 -12 13 -16 12
-4 -1 -12 1 -19 4 -6 3 -1 4 12 3 14 -1 26 -9 28 -17z m-519 -1 c-2 -6 -8 -11
-13 -11 -6 -1 -15 -8 -21 -16 -7 -10 -13 -11 -18 -4 -3 6 4 18 16 26 26 19 41
21 36 5z m610 -4 c7 -3 10 -9 7 -15 -4 -6 3 -9 16 -7 12 1 24 -3 26 -10 5 -15
-32 -5 -74 20 -19 11 -33 14 -33 8 0 -6 -4 -11 -8 -11 -5 0 -9 6 -9 14 0 13
37 13 75 1z m-419 -36 c-15 -9 -32 -2 -24 11 3 5 13 6 21 3 12 -4 13 -8 3 -14z
m605 -5 c3 -8 2 -12 -4 -9 -6 3 -10 10 -10 16 0 14 7 11 14 -7z m-94 -9 c0 6
5 2 11 -7 5 -9 16 -15 23 -12 21 8 28 -12 12 -29 -8 -8 -12 -18 -8 -22 4 -5 1
-5 -5 -1 -8 4 -13 2 -13 -5 0 -8 -7 -5 -20 6 -14 13 -18 25 -14 44 4 20 3 22
-5 11 -5 -8 -13 -11 -16 -8 -4 4 -1 13 6 21 10 11 16 12 21 3 4 -6 8 -7 8 -1z
m-730 -10 c-7 -9 -15 -13 -19 -10 -3 3 1 10 9 15 21 14 24 12 10 -5z m119 1
c-13 -11 -49 -16 -49 -6 0 6 4 9 8 6 4 -2 14 -1 22 4 13 8 29 5 19 -4z m428
-27 c2 -11 -1 -18 -6 -14 -6 3 -9 14 -8 25 2 23 10 17 14 -11z m-189 8 c6 -5
12 -12 12 -17 0 -12 -43 4 -48 18 -3 11 16 11 36 -1z m482 -22 c0 -5 -5 -3
-10 5 -5 8 -10 20 -10 25 0 6 5 3 10 -5 5 -8 10 -19 10 -25z m-783 19 c-3 -3
-12 -4 -19 -1 -8 3 -5 6 6 6 11 1 17 -2 13 -5z m-47 -19 c-7 -8 -17 -15 -23
-15 -6 0 -2 7 9 15 25 19 30 19 14 0z m400 7 c0 -5 -7 -9 -15 -9 -8 0 -15 4
-15 9 0 4 7 8 15 8 8 0 15 -4 15 -8z m40 -11 c0 -6 -5 -13 -10 -16 -6 -4 -7
-11 -4 -17 4 -6 2 -8 -4 -4 -15 9 -11 46 5 46 7 0 13 -4 13 -9z m35 -21 c3 -5
2 -10 -4 -10 -5 0 -13 5 -16 10 -3 6 -2 10 4 10 5 0 13 -4 16 -10z m84 -12
c18 -11 18 -13 3 -24 -13 -10 -14 -15 -5 -24 6 -7 17 -9 23 -5 9 6 9 10 -1 16
-10 6 -10 9 -2 9 17 0 25 -17 13 -25 -6 -4 -16 -18 -21 -33 -7 -19 -13 -22
-21 -14 -9 9 -15 7 -26 -10 l-13 -23 6 22 c5 18 3 22 -9 17 -9 -3 -16 -2 -16
4 0 5 16 8 35 6 25 -2 35 1 35 11 0 17 -43 32 -48 16 -5 -14 -22 -15 -22 0 0
5 14 15 30 20 31 11 40 33 18 42 -7 3 -10 6 -5 6 4 1 16 -4 26 -11z m-648 -18
c-29 -25 -41 -25 -41 -2 0 12 3 13 8 5 6 -10 12 -10 28 2 28 21 33 17 5 -5z
m593 4 c3 -8 2 -12 -4 -9 -6 3 -10 1 -10 -4 0 -6 -7 -11 -15 -11 -9 0 -12 6
-9 15 4 8 10 12 15 9 5 -3 9 0 9 5 0 16 7 13 14 -5z m183 -23 c24 -29 29 -41
20 -50 -6 -6 -16 -11 -21 -11 -6 0 -3 5 7 11 14 8 16 14 6 25 -6 7 -16 11 -22
7 -6 -3 -7 -1 -3 5 4 7 1 12 -8 12 -9 0 -16 2 -16 4 0 2 -3 11 -6 20 -11 28
10 17 43 -23z m-673 9 c-10 -4 -21 -6 -24 -3 -8 7 24 22 34 16 5 -4 1 -10 -10
-13z m159 -14 c-4 -5 1 -7 12 -2 15 5 16 4 5 -9 -11 -13 -15 -13 -21 -3 -6 8
-9 9 -9 2 0 -7 -7 -15 -16 -18 -8 -3 -12 -2 -9 4 4 6 -3 9 -16 7 -23 -4 -35
-32 -18 -43 5 -3 9 0 9 6 0 6 5 8 11 4 8 -5 6 -10 -5 -16 -37 -21 -46 24 -12
61 10 11 22 18 26 16 4 -3 13 2 20 11 10 11 15 12 21 2 4 -6 5 -16 2 -22z
m603 6 c1 -12 -3 -22 -8 -22 -5 0 -8 6 -5 13 2 6 -3 18 -12 25 -14 11 -14 12
4 10 13 -2 20 -11 21 -26z m-710 -1 c-17 -18 -38 -22 -52 -8 -4 3 3 5 14 2 11
-2 26 3 33 11 6 8 14 14 17 14 3 0 -3 -9 -12 -19z m160 10 c-7 -11 60 -24 76
-15 6 4 37 8 69 10 44 2 59 -1 63 -12 5 -12 1 -14 -17 -9 -21 6 -21 6 3 -15
14 -12 18 -18 10 -14 -11 5 -10 2 3 -13 9 -11 17 -24 17 -29 0 -17 25 -64 33
-64 5 0 5 -5 2 -10 -4 -6 -11 -7 -17 -4 -7 4 -8 2 -4 -5 4 -7 15 -11 24 -9 10
1 22 -1 29 -5 6 -4 17 -2 25 5 17 17 125 17 125 1 0 -7 -9 -11 -21 -8 -65 12
-83 12 -100 -1 -15 -11 -22 -11 -34 -1 -13 10 -15 9 -10 -10 5 -18 2 -23 -12
-23 -10 0 -20 -4 -22 -8 -5 -12 -121 -52 -149 -52 -20 1 -17 5 19 24 34 17 41
25 30 33 -9 8 -22 6 -48 -8 -19 -11 -30 -19 -25 -19 6 0 -8 -9 -30 -19 -22
-11 -36 -20 -32 -20 5 -1 -5 -13 -22 -27 -35 -29 -38 -41 -13 -47 13 -4 13 -5
-4 -6 -12 0 -27 -8 -34 -16 -18 -22 -29 -18 -22 7 4 18 2 20 -16 16 -15 -4
-22 -2 -22 8 0 8 6 11 15 8 10 -4 15 0 15 14 0 11 -7 23 -16 26 -8 3 -12 11
-8 17 4 8 9 7 15 -2 4 -7 12 -10 16 -5 4 4 -2 15 -14 23 -26 18 -30 33 -8 33
11 0 14 16 13 80 -2 66 2 84 18 104 10 13 21 24 24 24 21 2 40 17 40 33 0 10
5 19 11 19 5 0 8 -4 5 -9z m-363 -16 c4 -8 2 -17 -3 -20 -6 -4 -10 3 -10 14 0
25 6 27 13 6z m953 -35 c0 -13 -4 -16 -10 -10 -14 14 -16 39 -2 34 6 -2 12
-13 12 -24z m42 23 c-11 -3 -15 -12 -12 -29 2 -13 0 -24 -5 -24 -5 0 -9 14 -9
30 1 24 5 30 22 29 16 -1 17 -2 4 -6z m-904 -34 l-19 -22 33 17 c17 9 32 21
32 27 0 8 5 7 15 -1 18 -15 10 -30 -16 -30 -27 0 -81 -29 -74 -40 3 -5 1 -11
-5 -15 -5 -3 -10 -11 -10 -16 0 -6 5 -7 10 -4 6 3 10 1 10 -5 0 -7 -7 -10 -15
-6 -14 5 -17 0 -14 -21 1 -5 6 -7 13 -5 6 1 1 -6 -11 -17 -18 -15 -20 -21 -9
-30 7 -6 17 -7 21 -3 5 4 5 1 1 -6 -4 -7 -11 -10 -16 -7 -4 3 -10 2 -13 -2 -2
-5 -2 -2 -1 5 2 6 -1 12 -6 12 -16 0 -11 28 12 73 12 23 22 52 23 65 0 13 11
32 25 42 31 23 39 17 14 -11z m930 16 c-4 -8 -11 -12 -16 -9 -6 4 -5 10 3 15
19 12 19 11 13 -6z m179 0 c-3 -9 -8 -14 -10 -11 -3 3 -2 9 2 15 9 16 15 13 8
-4z m-337 -24 c-3 -5 1 -11 9 -15 20 -7 19 -30 -2 -47 -9 -8 -14 -9 -10 -2 4
6 4 13 0 16 -5 2 -2 2 5 1 6 -2 12 3 12 10 0 9 -7 12 -20 9 -22 -6 -26 7 -8
25 14 14 22 16 14 3z m224 -1 c0 -5 -5 -10 -11 -10 -5 0 -7 5 -4 10 3 6 8 10
11 10 2 0 4 -4 4 -10z m21 -13 c-10 -9 -11 -8 -5 6 3 10 9 15 12 12 3 -3 0
-11 -7 -18z m-56 3 c3 -5 2 -10 -4 -10 -5 0 -13 5 -16 10 -3 6 -2 10 4 10 5 0
13 -4 16 -10z m-915 -20 c0 -14 -42 -50 -52 -44 -15 10 -8 23 20 38 33 18 32
18 32 6z m544 -27 c-2 -21 -3 -41 -3 -45 -1 -5 -6 -8 -12 -8 -5 0 -7 5 -3 12
5 8 2 9 -9 5 -10 -3 -17 -2 -17 3 0 6 7 10 15 10 8 0 14 3 13 8 -2 8 12 52 16
52 2 0 2 -17 0 -37z m396 27 c0 -5 -17 -9 -37 -9 -38 1 -38 1 -8 9 43 11 45
11 45 0z m220 -2 c0 -10 3 -9 9 1 6 9 11 10 15 2 4 -6 2 -11 -4 -11 -6 0 -8
-5 -5 -10 4 -6 11 -8 16 -5 5 4 9 1 9 -4 0 -16 -16 -13 -30 4 -7 8 -17 12 -23
8 -6 -4 -7 -1 -2 7 6 9 4 11 -5 5 -10 -6 -9 -11 5 -22 15 -10 15 -13 4 -13
-25 0 -39 20 -26 36 15 17 37 18 37 2z m-175 -38 c-3 -6 -12 -10 -18 -10 -9 0
-8 3 1 8 7 5 10 17 7 28 -6 17 -6 18 5 1 6 -9 8 -22 5 -27z m-921 21 c3 -4 -6
-6 -19 -3 -14 2 -25 6 -25 8 0 8 39 4 44 -5z m53 -25 c-3 -6 -10 -10 -16 -8
-13 2 -13 0 -5 -23 5 -13 8 -14 15 -3 6 9 9 9 9 1 0 -7 -9 -20 -19 -30 -11
-10 -21 -29 -24 -43 -3 -19 -5 -15 -6 12 -1 31 -4 36 -18 32 -15 -5 -15 -4 -3
4 9 7 19 7 26 2 15 -13 26 0 13 16 -14 18 -1 64 17 57 8 -3 13 -11 11 -17z
m776 17 c-7 -2 -19 -2 -25 0 -7 3 -2 5 12 5 14 0 19 -2 13 -5z m-828 -21 c-3
-3 -11 0 -18 7 -9 10 -8 11 6 5 10 -3 15 -9 12 -12z m705 -3 c0 -5 -8 -9 -17
-8 -11 0 -13 3 -5 6 6 2 9 10 6 15 -4 7 -2 8 4 4 7 -4 12 -11 12 -17z m158
-13 c-15 -11 -15 -13 -1 -22 13 -8 12 -10 -6 -11 -15 -1 -21 4 -21 18 0 10 7
19 15 19 8 0 15 5 15 12 0 6 3 8 7 4 5 -4 0 -13 -9 -20z m106 -41 c-1 -17 4
-41 13 -55 15 -23 15 -24 0 -12 -9 8 -20 11 -24 9 -5 -3 -9 3 -10 13 -1 11 2
22 8 25 5 4 5 14 -2 27 -8 15 -8 19 0 14 6 -4 11 -3 11 3 0 5 -4 13 -10 16 -5
3 -10 11 -10 18 0 6 6 3 14 -8 8 -11 12 -34 10 -50z m-325 16 c-17 -36 -61
-62 -77 -46 -3 3 2 5 11 5 10 0 17 4 17 10 0 5 7 7 15 4 10 -4 13 0 10 15 -2
12 0 19 6 16 5 -4 9 -1 9 4 0 6 -6 11 -12 12 -7 0 -4 4 7 9 33 14 34 12 14
-29z m428 24 c0 -8 -4 -12 -9 -9 -4 3 -8 9 -8 15 0 5 4 9 8 9 5 0 9 -7 9 -15z
m-334 -32 c-5 -12 -3 -14 7 -8 8 5 11 4 7 -2 -4 -6 -18 -10 -32 -10 -26 0 -26
0 -5 14 18 13 19 17 8 31 -12 15 -11 16 4 4 10 -8 14 -20 11 -29z m182 16 c-4
-6 1 -17 11 -25 18 -13 18 -14 -1 -8 -16 6 -18 5 -7 -7 17 -19 15 -25 -10 -26
-13 0 -17 1 -10 4 6 3 12 9 12 14 0 6 -6 7 -12 3 -10 -6 -10 -4 0 8 10 12 10
18 1 23 -8 6 -7 10 2 16 18 12 21 11 14 -2z m-1013 -22 c-7 -8 -9 -17 -5 -20
3 -4 -4 -19 -18 -33 -20 -21 -21 -27 -9 -35 12 -9 12 -10 -3 -5 -10 3 -23 6
-28 6 -5 0 -9 7 -9 16 0 9 6 14 14 11 13 -5 47 26 44 41 -2 12 14 43 20 38 3
-3 0 -12 -6 -19z m1288 -1 c10 -14 11 -17 2 -12 -7 4 -19 3 -26 -3 -9 -8 -13
-7 -13 4 0 8 4 12 9 9 4 -3 8 3 8 12 0 10 1 15 3 13 1 -2 9 -13 17 -23z
m-1330 -6 c0 -5 -7 -10 -16 -10 -8 0 -12 5 -9 10 3 6 10 10 16 10 5 0 9 -4 9
-10z m73 -16 c-4 -12 -8 -13 -14 -3 -9 15 -2 32 11 24 5 -3 6 -13 3 -21z m620
19 c-7 -2 -21 -2 -30 0 -10 3 -4 5 12 5 17 0 24 -2 18 -5z m-576 -35 c-3 -8
-6 -5 -6 6 -1 11 2 17 5 13 3 -3 4 -12 1 -19z m1091 -8 c0 -16 -4 -30 -9 -30
-10 0 -12 21 -3 44 9 23 11 20 12 -14z m-528 10 c8 -5 11 -10 5 -10 -5 0 -17
5 -25 10 -8 5 -10 10 -5 10 6 0 17 -5 25 -10z m650 -21 c0 -5 -5 -9 -11 -9 -5
0 -8 -4 -5 -9 3 -5 16 -7 28 -3 13 3 19 1 15 -6 -14 -22 -59 0 -50 25 5 12 3
14 -7 8 -8 -5 -11 -4 -6 3 7 12 36 5 36 -9z m-652 -17 c2 -7 -2 -10 -12 -6 -9
3 -16 11 -16 16 0 13 23 5 28 -10z m45 11 c-7 -2 -13 -11 -13 -19 0 -8 -5 -14
-11 -14 -5 0 -7 -5 -4 -10 4 -6 10 -8 15 -5 5 3 11 1 14 -4 7 -10 -20 -9 -30
2 -12 12 -26 8 -18 -5 5 -7 3 -8 -6 -3 -11 7 -9 12 8 23 12 8 22 21 22 28 0 8
8 14 18 13 10 0 12 -3 5 -6z m337 -3 c-8 -5 -19 -10 -25 -10 -5 0 -3 5 5 10 8
5 20 10 25 10 6 0 3 -5 -5 -10z m143 -43 c-6 -9 -13 -1 -35 38 -9 17 -7 16 15
-4 15 -13 24 -28 20 -34z m-648 28 c19 -10 22 -13 8 -9 -13 3 -23 1 -23 -5 0
-6 5 -11 10 -11 15 0 12 -17 -4 -23 -11 -4 -13 -1 -9 10 4 11 2 14 -5 9 -8 -5
-10 -2 -6 8 13 35 -36 14 -82 -34 -26 -27 -52 -50 -57 -50 -6 0 -3 8 6 18 10
10 17 30 17 44 0 25 21 39 75 51 33 7 39 7 70 -8z m-735 -10 c0 -2 -6 -5 -13
-8 -8 -3 -14 1 -14 8 0 7 6 11 14 8 7 -3 13 -6 13 -8z m510 -25 c-7 -13 -7
-21 0 -25 16 -10 29 3 23 25 -6 22 -3 23 21 14 18 -7 22 -54 5 -71 -6 -6 -26
-8 -46 -6 -34 5 -35 5 -19 -19 10 -16 12 -28 6 -38 -6 -10 -10 -11 -10 -3 0 7
-7 10 -17 7 -17 -5 -17 -5 0 6 19 12 23 30 6 30 -5 0 -7 -4 -4 -10 3 -6 -4
-10 -16 -10 -22 0 -22 1 -4 14 10 7 20 28 21 46 1 18 9 37 18 42 9 5 13 14 10
20 -4 7 -2 8 4 4 9 -5 9 -13 2 -26z m298 8 c18 -18 14 -38 -7 -38 -14 0 -19 7
-17 25 1 28 6 31 24 13z m270 -10 c-3 -7 -12 -14 -22 -14 -15 -2 -15 -2 0 3
14 4 14 7 3 14 -11 7 -10 9 4 9 11 0 17 -6 15 -12z m-384 -40 c-3 -4 -11 -8
-17 -7 -9 0 -9 2 0 5 7 3 9 13 6 22 -4 14 -3 14 5 2 6 -8 8 -18 6 -22z m520
17 c-4 -8 -10 -12 -15 -9 -11 6 -2 24 11 24 5 0 7 -7 4 -15z m-1210 -7 c-5 -8
-1 -9 12 -4 14 5 16 4 7 -5 -6 -6 -16 -8 -22 -5 -14 9 -14 26 0 26 5 0 7 -5 3
-12z m647 -11 c-10 -9 -11 -8 -5 6 3 10 9 15 12 12 3 -3 0 -11 -7 -18z m254
-31 c18 -17 18 -19 2 -13 -10 4 -35 -1 -55 -11 -20 -10 -46 -17 -57 -17 -11 0
-24 -4 -28 -10 -5 -6 -7 -4 -4 5 2 8 10 15 18 15 8 1 13 6 12 13 -2 7 0 11 5
11 21 -4 23 3 7 21 -17 19 -17 20 1 22 10 0 25 1 32 1 6 -1 12 4 12 10 0 6 8
2 17 -8 10 -11 27 -29 38 -39z m457 29 c8 -19 14 -22 20 -13 6 10 8 10 8 1 0
-7 7 -10 18 -6 11 3 9 -1 -6 -12 -13 -9 -24 -15 -26 -14 -31 43 -45 69 -36 69
6 0 16 -11 22 -25z m-1379 -20 c-3 -8 -13 -15 -22 -14 -10 0 -11 2 -3 6 6 2
12 11 12 19 0 9 4 13 10 9 5 -3 7 -12 3 -20z m1091 19 c17 -7 22 -34 6 -34 -5
0 -9 5 -7 12 1 7 -11 15 -28 19 -22 5 -24 7 -8 8 12 0 28 -2 37 -5z m-1044
-19 c-7 -9 -15 -13 -19 -10 -3 3 1 10 9 15 21 14 24 12 10 -5z m81 -25 c6 0 7
6 3 13 -6 10 -4 10 7 0 15 -15 33 -18 25 -5 -3 5 0 9 7 9 7 0 20 4 30 8 10 4
17 3 17 -4 0 -6 -3 -10 -7 -9 -5 1 -18 -3 -31 -10 -12 -7 -26 -10 -31 -8 -5 3
-12 -2 -16 -12 -7 -16 -8 -15 -15 3 -5 11 -8 29 -8 40 1 17 1 16 5 -2 2 -13 9
-23 14 -23z m1346 23 c-4 -3 -2 -12 5 -20 8 -11 7 -12 -6 -7 -9 3 -16 9 -16
13 0 9 11 21 18 21 3 0 2 -3 -1 -7z m-787 -10 c0 -1 -10 -7 -21 -14 -13 -6
-19 -7 -15 -1 3 6 0 12 -6 15 -7 2 -1 4 14 3 16 0 28 -2 28 -3z m386 -4 c4 -8
-1 -9 -17 -5 -23 7 -23 7 -5 -9 13 -10 23 -12 30 -5 14 14 26 12 26 -5 0 -9
-6 -12 -15 -9 -22 9 -18 -6 9 -35 24 -26 29 -44 27 -88 -1 -16 -6 -21 -16 -17
-20 8 -19 -6 3 -22 16 -13 16 -13 0 -14 -31 0 -19 -15 27 -34 47 -20 51 -25
36 -41 -5 -6 -11 -25 -13 -44 l-3 -34 -78 -2 c-82 -3 -121 -15 -46 -15 24 0
54 -3 66 -6 21 -6 21 -7 6 -33 -38 -60 -41 -61 -78 -39 -19 11 -39 17 -44 14
-5 -3 -20 -2 -33 4 -22 9 -21 9 7 7 34 -2 45 22 20 46 -14 14 -11 17 27 25 24
6 33 10 21 11 -27 1 -30 26 -7 52 15 17 19 17 51 4 32 -13 34 -13 23 0 -7 8
-19 15 -28 15 -8 0 -34 21 -59 47 -39 42 -42 50 -32 69 6 12 10 38 7 57 -4 35
-3 36 42 46 l45 10 -40 -2 c-36 -2 -40 0 -43 25 -3 27 -1 28 65 37 6 0 15 -4
19 -10z m-990 -34 c0 -14 -4 -25 -8 -25 -10 0 -10 13 -2 34 9 23 12 20 10 -9z
m227 12 c-4 -6 0 -8 10 -4 9 3 19 2 22 -3 9 -15 -31 -12 -44 3 -8 10 -7 14 4
14 8 0 11 -5 8 -10z m134 -1 c-3 -8 1 -17 9 -20 9 -3 12 -10 9 -16 -10 -16
-19 -12 -32 15 -6 14 -7 23 -2 19 5 -3 9 0 9 5 0 6 3 11 6 11 3 0 4 -6 1 -14z
m130 8 c-3 -3 -12 -4 -19 -1 -8 3 -5 6 6 6 11 1 17 -2 13 -5z m349 -30 c0 -13
-5 -24 -9 -24 -5 0 -5 -5 -2 -11 4 -6 13 -8 21 -5 16 6 19 -21 5 -42 -6 -10
-22 -12 -65 -7 -31 4 -56 12 -56 17 0 5 4 7 9 4 5 -3 26 0 47 7 21 8 33 16 27
20 -15 9 -116 -27 -106 -37 4 -5 2 -6 -5 -2 -7 4 -20 2 -29 -6 -12 -9 -15 -9
-9 0 5 8 1 12 -13 12 -25 0 -36 15 -13 18 45 4 60 10 97 35 22 15 46 27 53 27
7 0 10 4 7 10 -4 6 1 7 11 3 12 -4 15 -3 10 5 -4 8 -2 10 7 6 8 -3 14 -16 13
-30z m-719 12 c0 -8 -6 -12 -12 -9 -7 2 -15 -3 -19 -12 -3 -9 -10 -13 -16 -10
-14 8 -3 24 24 35 11 5 21 9 22 9 0 1 1 -5 1 -13z m399 -1 c-10 -8 -24 -11
-29 -8 -6 4 -2 10 9 14 31 12 40 9 20 -6z m-359 -1 c-3 -3 -12 -4 -19 -1 -8 3
-5 6 6 6 11 1 17 -2 13 -5z m397 -35 c-16 -18 -16 -19 15 -15 38 4 47 -5 20
-22 -14 -9 -18 -9 -17 -1 3 10 -31 18 -84 20 -21 1 -16 32 6 35 12 2 16 -2 12
-12 -7 -19 4 -18 21 4 8 9 12 11 8 5 -3 -7 -2 -13 3 -13 17 0 22 13 9 29 -11
14 -10 14 6 2 16 -13 16 -15 1 -32z m840 25 c3 -8 2 -12 -4 -9 -6 3 -10 10
-10 16 0 14 7 11 14 -7z m-934 -14 c-6 -11 -16 -17 -22 -14 -7 5 -5 12 7 21
25 18 28 17 15 -7z m215 -8 c-1 -10 -9 -16 -20 -14 -11 2 -14 -1 -9 -9 4 -8 3
-10 -4 -5 -17 11 -14 34 5 45 22 12 32 6 28 -17z m-61 2 c5 -13 4 -14 -7 -6
-8 7 -18 8 -22 4 -5 -4 -5 -1 -1 6 10 17 23 15 30 -4z m-219 -4 c-3 -5 -1 -10
4 -10 6 0 11 -5 11 -11 0 -8 -5 -8 -15 1 -13 11 -12 30 1 30 3 0 2 -4 -1 -10z
m-237 -9 c10 -6 5 -11 -18 -20 -23 -7 -37 -8 -49 0 -14 9 -14 10 2 5 9 -3 17
-1 17 4 0 5 7 6 17 3 11 -4 14 -3 9 5 -8 14 3 15 22 3z m49 3 c-3 -3 -12 -4
-19 -1 -8 3 -5 6 6 6 11 1 17 -2 13 -5z m-352 -14 c-3 -5 -14 -10 -23 -10 -15
0 -15 2 -2 10 20 13 33 13 25 0z m330 -27 c-31 -18 -55 -25 -55 -17 0 6 62 33
75 33 6 0 -3 -7 -20 -16z m155 7 c-7 -4 -10 -12 -7 -17 3 -5 0 -10 -8 -10 -8
0 -12 4 -9 8 2 4 0 10 -6 14 -9 5 -14 -6 -12 -25 0 -3 -9 -7 -21 -7 -21 -2
-22 -1 -3 13 11 8 16 14 10 14 -5 0 -3 4 5 9 7 5 24 9 38 9 16 0 20 -3 13 -8z
m-460 -10 c0 -5 -5 -10 -11 -10 -5 0 -7 5 -4 10 3 6 8 10 11 10 2 0 4 -4 4
-10z m489 -21 c-8 -5 -12 -9 -9 -10 3 0 13 -2 22 -4 10 -2 26 7 35 19 15 19
23 21 49 14 37 -9 61 -33 42 -41 -19 -7 -58 10 -58 25 -1 7 -12 0 -25 -17 -21
-25 -27 -28 -35 -15 -8 13 -10 13 -10 -2 0 -9 -13 -21 -30 -27 -16 -5 -30 -13
-30 -16 0 -3 6 -3 13 1 6 4 9 4 5 0 -3 -4 -10 -8 -15 -8 -4 1 -17 -7 -27 -16
-19 -17 -19 -16 -1 16 11 17 23 32 28 32 4 0 5 5 1 12 -4 6 -3 8 4 4 9 -5 24
8 28 24 0 3 5 14 9 24 6 14 10 16 13 7 2 -7 -2 -17 -9 -22z m-495 -14 c-4 -8
-8 -15 -10 -15 -2 0 -4 7 -4 15 0 8 4 15 10 15 5 0 7 -7 4 -15z m276 -6 c0
-14 -27 -10 -33 5 -4 10 0 12 14 9 10 -3 19 -9 19 -14z m-338 -14 c-2 -14 -6
-25 -8 -25 -2 0 -4 11 -4 25 0 14 4 25 9 25 4 0 6 -11 3 -25z m288 15 c8 -5
11 -10 5 -10 -5 0 -17 5 -25 10 -8 5 -10 10 -5 10 6 0 17 -5 25 -10z m440 -25
c6 -8 9 -18 6 -23 -3 -5 4 -18 17 -28 12 -10 16 -12 10 -4 -19 21 -16 29 10
22 l22 -5 -20 23 -20 23 43 -22 c31 -16 52 -20 77 -15 19 3 47 3 61 0 21 -6
25 -12 22 -31 -5 -22 -3 -23 31 -17 38 6 50 7 94 4 32 -2 37 -22 5 -23 -13 0
-17 -3 -10 -6 20 -8 -16 -43 -43 -43 -26 0 -42 29 -23 42 8 6 -17 8 -65 5 -42
-3 -75 -2 -72 2 2 5 -19 3 -46 -2 l-51 -10 -50 53 c-37 40 -46 55 -36 61 18
12 24 11 38 -6z m-703 -17 c-3 -8 -6 -5 -6 6 -1 11 2 17 5 13 3 -3 4 -12 1
-19z m601 8 c-25 -18 -23 -29 3 -16 11 6 25 10 30 8 22 -7 -48 -23 -76 -17
l-30 6 35 16 c42 20 61 21 38 3z m-543 -36 c-3 -5 -12 -10 -18 -10 -7 0 -6 4
3 10 19 12 23 12 15 0z m888 -90 c6 -16 20 -31 32 -33 11 -2 -68 -5 -175 -5
-199 -1 -282 9 -185 22 28 4 71 10 97 15 34 6 51 5 58 -4 5 -6 7 -15 3 -18 -3
-4 6 -7 21 -7 l28 0 -23 21 -24 20 34 -5 c18 -3 40 -6 47 -6 8 0 14 -7 14 -15
0 -28 28 -15 35 15 8 38 24 38 38 0z m-1 -67 c0 -10 1 -24 1 -30 -1 -7 5 -13
12 -13 7 0 20 -11 29 -25 19 -29 20 -35 5 -35 -5 0 -8 4 -4 9 3 5 -3 12 -12
15 -10 3 -44 12 -76 21 -31 9 -55 21 -51 26 3 5 9 7 14 4 5 -3 11 -1 14 4 3 5
-3 11 -14 14 -39 10 -20 27 30 27 40 0 50 -3 52 -17z m255 11 c-3 -3 -12 -4
-19 -1 -8 3 -5 6 6 6 11 1 17 -2 13 -5z m-190 -38 c-10 -26 -25 -18 -19 10 3
17 8 22 15 15 5 -5 7 -17 4 -25z m-247 3 c0 -15 -4 -19 -16 -15 -9 3 -23 6
-32 6 -15 1 -14 3 2 15 28 21 46 19 46 -6z m60 -1 c-13 -5 -31 -7 -39 -5 -10
3 -8 5 6 6 12 0 25 6 28 11 4 6 11 7 17 4 7 -5 2 -11 -12 -16z m-13 -24 c-3
-3 -12 -4 -19 -1 -8 3 -5 6 6 6 11 1 17 -2 13 -5z m-423 -22 c13 -9 21 -22 19
-29 -2 -6 1 -14 6 -18 18 -10 12 -25 -9 -25 -15 0 -20 7 -21 28 l-1 27 -7 -30
c-5 -24 -12 -31 -35 -33 -24 -3 -28 -1 -21 15 4 10 9 27 12 38 9 39 12 45 24
45 6 0 21 -8 33 -18z m306 11 c0 -1 -8 -7 -19 -12 -13 -7 -23 -7 -35 2 -14 10
-11 12 19 12 19 0 35 -1 35 -2z m386 -12 c-3 -5 1 -12 10 -15 10 -4 13 -2 8 7
-5 9 -4 9 6 0 18 -17 13 -21 -42 -25 -55 -5 -59 0 -20 24 30 19 46 23 38 9z
m-312 -10 c4 -5 -3 -7 -14 -4 -23 6 -26 13 -6 13 8 0 17 -4 20 -9z m-203 -38
c16 -16 8 -24 -33 -30 -28 -3 -36 0 -45 19 -10 22 -8 23 28 23 21 0 44 -6 50
-12z m-107 1 c17 -6 22 -30 8 -36 -5 -1 -2 -31 6 -66 11 -45 12 -66 4 -74 -7
-7 -19 6 -41 50 -17 33 -35 63 -41 67 -18 11 -11 25 14 25 19 0 26 -7 32 -32
4 -18 9 -28 11 -22 2 6 -3 30 -10 53 -15 41 -12 46 17 35z m460 -12 c3 -5 -1
-9 -9 -9 -8 0 -12 4 -9 9 3 4 7 8 9 8 2 0 6 -4 9 -8z m-574 -59 c0 -13 -3 -13
-15 -3 -8 7 -12 16 -9 21 8 13 24 1 24 -18z m325 7 c10 -11 16 -20 13 -20 -3
0 -13 9 -23 20 -10 11 -16 20 -13 20 3 0 13 -9 23 -20z m-354 -14 c1 5 5 -2 9
-16 10 -32 11 -179 1 -204 -7 -19 -8 -19 -13 1 -4 17 -11 20 -29 16 -20 -4
-21 -3 -9 7 10 7 11 13 4 16 -6 3 -9 17 -6 32 5 25 4 26 -13 12 -17 -14 -18
-13 -11 14 5 19 3 32 -5 36 -8 6 -7 17 7 41 11 19 22 36 27 37 4 2 7 11 7 20
1 15 3 14 15 -2 8 -11 15 -16 16 -10z m380 -32 c16 -14 16 -20 4 -55 -14 -39
-77 -108 -99 -110 -6 0 -2 -4 9 -9 11 -5 16 -9 10 -10 -5 -1 -18 -3 -27 -5
-10 -2 -22 4 -28 13 -9 16 -11 16 -20 0 -8 -13 -24 -18 -54 -18 -36 0 -47 5
-61 27 -10 15 -18 43 -19 62 -1 20 -6 35 -12 34 -16 -3 -5 45 12 51 8 3 20 -6
28 -23 8 -15 21 -33 30 -40 13 -11 16 -7 21 23 4 19 4 39 1 44 -6 10 34 25 42
17 3 -2 -5 -27 -17 -54 -22 -52 -27 -86 -12 -76 5 3 12 19 16 35 4 17 12 30
18 30 9 0 9 2 0 8 -8 5 -6 13 7 29 l18 23 6 -25 c9 -37 29 -31 21 6 l-7 31 45
-3 c25 -2 43 -1 40 4 -8 13 10 7 28 -9z m65 -41 c-3 -10 -7 -30 -10 -44 -5
-34 -40 -102 -60 -118 -9 -7 -14 -17 -11 -21 3 -4 -7 -20 -20 -34 -14 -15 -25
-23 -25 -19 0 5 5 14 11 20 8 8 7 13 -2 18 -8 5 -10 4 -5 -3 4 -7 2 -12 -3
-12 -6 0 -11 -10 -11 -22 0 -21 0 -21 -14 -2 -12 16 -12 20 -1 27 8 4 12 14 8
22 -4 13 -1 14 21 5 18 -6 25 -6 21 0 -3 6 0 10 7 10 10 0 9 3 -2 11 -13 9
-13 10 1 6 16 -5 39 9 39 24 0 4 -7 10 -16 13 -11 4 -15 2 -11 -8 3 -8 -2 -16
-15 -19 -11 -3 -17 -10 -13 -16 3 -6 2 -11 -4 -11 -21 0 -19 18 5 41 13 12 22
29 20 35 -5 13 42 49 52 40 3 -3 0 -6 -7 -6 -7 0 -10 -4 -6 -9 3 -6 -3 -14
-12 -20 -16 -9 -16 -10 4 -8 12 0 20 4 17 8 -2 4 0 10 5 14 5 3 9 14 8 25 -1
10 -5 16 -9 14 -4 -3 -8 0 -8 5 0 6 6 11 14 11 8 0 17 7 20 16 4 12 2 15 -9
10 -8 -3 -15 -1 -15 4 0 6 9 10 21 10 15 0 19 -5 15 -17z m-360 -88 c0 -25 -3
-45 -8 -45 -8 0 -10 11 -10 50 0 33 2 40 10 40 4 0 7 -20 8 -45z m-18 -77
c-21 -13 -38 2 -27 24 10 19 11 19 24 1 9 -12 10 -20 3 -25z m187 0 c3 -13 7
-36 8 -53 2 -28 0 -30 -33 -28 -19 2 -43 3 -52 3 -10 1 -18 6 -18 12 0 6 9 8
19 5 16 -4 24 4 38 39 20 49 30 55 38 22z m-135 -28 c0 -4 14 -6 30 -5 19 1
27 -2 22 -7 -12 -12 -63 -18 -56 -7 3 5 -2 9 -10 9 -9 0 -16 4 -16 8 0 5 7 9
15 9 8 0 15 -3 15 -7z m-31 -66 c2 -2 -15 -4 -38 -4 -25 0 -40 4 -36 10 5 8
63 3 74 -6z"/>
<path d="M1506 1856 c5 -13 4 -17 -4 -12 -8 5 -10 2 -6 -8 8 -21 16 -20 38 6
14 16 15 20 3 15 -8 -3 -20 0 -26 6 -9 9 -10 8 -5 -7z"/>
<path d="M925 1759 c-11 -17 1 -21 15 -4 8 9 8 15 2 15 -6 0 -14 -5 -17 -11z"/>
<path d="M1032 1718 c-18 -18 -15 -25 18 -31 24 -5 30 -12 30 -32 0 -17 4 -24
11 -19 16 9 1 -36 -19 -58 -17 -20 -3 -25 17 -5 11 10 12 8 6 -10 -6 -23 8
-32 20 -13 3 6 21 10 39 10 32 0 86 39 86 61 0 21 -95 -8 -113 -34 -5 -7 -5
-2 -1 13 3 14 13 33 21 42 17 19 10 38 -13 38 -8 0 -19 11 -24 25 -7 19 -17
25 -38 25 -15 0 -33 -5 -40 -12z"/>
<path d="M981 1668 c1 -7 5 -24 9 -38 7 -22 8 -21 9 13 1 20 -3 37 -9 37 -5 0
-10 -6 -9 -12z"/>
<path d="M1017 1639 c4 -36 1 -48 -16 -63 -12 -11 -21 -24 -21 -29 0 -6 -8
-20 -17 -31 -11 -12 -4 -9 16 7 28 24 72 88 71 107 0 3 -9 16 -19 29 l-19 25
5 -45z"/>
<path d="M955 1200 c-3 -5 -1 -10 4 -10 6 0 11 5 11 10 0 6 -2 10 -4 10 -3 0
-8 -4 -11 -10z"/>
<path d="M1338 953 c6 -2 18 -2 25 0 6 3 1 5 -13 5 -14 0 -19 -2 -12 -5z"/>
<path d="M949 857 c6 -6 18 -12 27 -13 12 -2 14 0 5 9 -6 6 -18 12 -27 13 -12
2 -14 0 -5 -9z"/>
<path d="M600 1669 c0 -5 5 -7 10 -4 6 3 10 8 10 11 0 2 -4 4 -10 4 -5 0 -10
-5 -10 -11z"/>
<path d="M567 1653 c-4 -3 -7 -14 -7 -22 0 -9 -10 -21 -22 -26 -12 -6 -24 -17
-26 -25 -3 -9 2 -7 12 5 13 17 15 17 16 4 0 -9 6 -22 14 -28 10 -9 13 -5 12
17 -1 15 2 39 6 55 7 28 6 32 -5 20z"/>
<path d="M616 1645 c-3 -8 -1 -15 4 -15 6 0 10 7 10 15 0 8 -2 15 -4 15 -2 0
-6 -7 -10 -15z"/>
<path d="M1700 1509 c0 -5 5 -7 10 -4 6 3 10 8 10 11 0 2 -4 4 -10 4 -5 0 -10
-5 -10 -11z"/>
<path d="M330 1406 c0 -2 9 -23 20 -47 11 -24 20 -36 20 -26 0 18 -27 77 -35
77 -3 0 -5 -2 -5 -4z"/>
<path d="M278 1332 c13 -17 28 -35 34 -39 7 -3 2 8 -10 25 -13 17 -28 35 -34
39 -7 3 -2 -8 10 -25z"/>
<path d="M155 1299 c-4 -5 4 -9 17 -9 13 0 37 -7 53 -16 27 -14 29 -14 15 1
-21 20 -78 37 -85 24z"/>
<path d="M372 1285 c0 -16 2 -22 5 -12 2 9 2 23 0 30 -3 6 -5 -1 -5 -18z"/>
<path d="M581 1280 c-8 -5 -11 -16 -6 -29 6 -21 8 -22 26 -5 10 9 19 20 19 24
0 12 -26 19 -39 10z"/>
<path d="M320 1270 c0 -5 5 -10 11 -10 5 0 7 -5 3 -12 -4 -7 -3 -8 5 -4 9 6 9
11 0 22 -14 17 -19 18 -19 4z"/>
<path d="M2056 1271 c-4 -7 -5 -15 -2 -18 9 -9 19 4 14 18 -4 11 -6 11 -12 0z"/>
<path d="M2096 1147 c3 -10 9 -15 12 -12 3 3 0 11 -7 18 -10 9 -11 8 -5 -6z"/>
<path d="M655 1080 c-3 -5 -16 -11 -28 -11 -17 -1 -18 -2 -4 -6 9 -2 17 -7 17
-9 0 -12 -29 -33 -51 -37 -23 -4 -23 -4 3 -6 18 -1 34 8 52 30 14 17 26 35 26
40 0 12 -7 12 -15 -1z"/>
<path d="M2054 1068 c-4 -7 -3 -10 1 -5 5 4 19 0 33 -9 13 -9 21 -11 18 -5
-13 21 -44 32 -52 19z"/>
<path d="M179 1051 l-24 -20 40 14 c23 8 58 11 81 8 25 -3 44 -1 48 6 5 8 -12
11 -57 11 -49 0 -70 -5 -88 -19z"/>
<path d="M2061 1030 c0 -8 6 -28 14 -45 17 -39 18 -21 0 25 -7 19 -14 28 -14
20z"/>
<path d="M746 1014 c-17 -12 -17 -14 -4 -14 9 0 20 5 23 11 11 17 2 18 -19 3z"/>
<path d="M978 963 c6 -2 18 -2 25 0 6 3 1 5 -13 5 -14 0 -19 -2 -12 -5z"/>
<path d="M1741 967 c2 -2 18 -11 34 -21 l30 -17 -24 20 c-13 12 -28 21 -34 21
-6 0 -8 -1 -6 -3z"/>
<path d="M2101 904 c0 -11 3 -14 6 -6 3 7 2 16 -1 19 -3 4 -6 -2 -5 -13z"/>
<path d="M2060 900 c0 -6 7 -10 15 -10 8 0 15 2 15 4 0 2 -7 6 -15 10 -8 3
-15 1 -15 -4z"/>
<path d="M2074 855 c4 -16 12 -34 17 -40 5 -5 4 6 -2 25 -15 45 -24 54 -15 15z"/>
<path d="M1618 823 c7 -3 16 -2 19 1 4 3 -2 6 -13 5 -11 0 -14 -3 -6 -6z"/>
<path d="M606 758 c18 -51 18 -51 -3 -44 -15 5 -15 4 1 -9 19 -14 36 -20 36
-11 0 2 -7 20 -15 40 -9 20 -13 41 -10 45 3 5 -2 11 -9 14 -13 5 -13 0 0 -35z"/>
<path d="M2103 760 c0 -25 2 -35 4 -22 2 12 2 32 0 45 -2 12 -4 2 -4 -23z"/>
<path d="M543 774 c19 -23 22 -66 6 -96 -8 -16 -8 -19 1 -13 9 6 10 1 4 -16
-4 -13 -8 -34 -9 -46 0 -13 -3 -23 -7 -23 -5 0 -8 -5 -8 -10 0 -6 8 -5 20 2
12 8 15 15 8 19 -6 4 -8 15 -4 25 5 11 10 46 13 79 4 54 2 63 -19 80 l-23 20
18 -21z"/>
<path d="M2091 644 c0 -11 3 -14 6 -6 3 7 2 16 -1 19 -3 4 -6 -2 -5 -13z"/>
<path d="M580 599 c0 -5 5 -7 10 -4 6 3 10 8 10 11 0 2 -4 4 -10 4 -5 0 -10
-5 -10 -11z"/>
<path d="M670 570 c6 -11 13 -20 16 -20 2 0 0 9 -6 20 -6 11 -13 20 -16 20 -2
0 0 -9 6 -20z"/>
<path d="M2050 566 c0 -3 9 -10 20 -16 11 -6 20 -8 20 -6 0 3 -9 10 -20 16
-11 6 -20 8 -20 6z"/>
<path d="M542 495 c-11 -23 0 -36 13 -15 3 5 13 7 23 4 13 -5 14 -4 3 4 -7 5
-17 15 -20 21 -5 7 -12 2 -19 -14z"/>
<path d="M575 510 c-3 -5 -2 -10 4 -10 5 0 13 5 16 10 3 6 2 10 -4 10 -5 0
-13 -4 -16 -10z"/>
<path d="M614 504 c-18 -14 -18 -15 4 -4 12 6 22 13 22 15 0 8 -5 6 -26 -11z"/>
<path d="M2061 503 c-1 -12 4 -25 9 -28 12 -7 12 2 0 30 -8 19 -9 19 -9 -2z"/>
<path d="M1268 470 c-12 -38 -10 -66 3 -53 6 6 9 26 7 44 -3 32 -3 33 -10 9z"/>
<path d="M2010 454 c0 -8 -3 -13 -7 -11 -5 3 -6 -15 -4 -39 2 -37 0 -44 -15
-44 -16 0 -17 -2 -4 -10 10 -6 17 -5 21 3 8 15 20 117 14 117 -3 0 -5 -7 -5
-16z"/>
<path d="M1515 440 c-16 -7 -17 -9 -3 -9 9 -1 20 4 23 9 7 11 7 11 -20 0z"/>
<path d="M1617 417 c18 -40 34 -34 32 13 -1 23 -2 23 -9 -5 -4 -16 -8 -25 -9
-19 0 5 -8 19 -16 30 -12 15 -12 11 2 -19z"/>
<path d="M1700 443 c8 -3 36 -16 62 -28 45 -22 47 -22 37 -4 -5 11 -14 17 -19
14 -5 -3 -23 1 -39 10 -17 8 -36 15 -43 14 -9 0 -8 -2 2 -6z"/>
<path d="M1844 416 c-3 -9 -4 -21 -1 -28 3 -7 6 -3 6 10 1 20 4 21 21 12 11
-6 20 -8 20 -6 0 3 -9 10 -20 16 -16 9 -22 8 -26 -4z"/>
<path d="M1816 367 c3 -10 9 -15 12 -12 3 3 0 11 -7 18 -10 9 -11 8 -5 -6z"/>
<path d="M600 359 c0 -5 5 -7 10 -4 6 4 10 -7 10 -27 0 -21 3 -28 9 -20 12 19
1 62 -15 62 -8 0 -14 -5 -14 -11z"/>
<path d="M1250 366 c0 -2 6 -16 14 -30 9 -19 15 -23 19 -13 3 8 -3 21 -14 30
-10 9 -19 15 -19 13z"/>
<path d="M1290 361 c0 -6 4 -13 10 -16 6 -3 7 1 4 9 -7 18 -14 21 -14 7z"/>
<path d="M1920 350 c6 -11 13 -20 16 -20 2 0 0 9 -6 20 -6 11 -13 20 -16 20
-2 0 0 -9 6 -20z"/>
<path d="M1230 321 c0 -6 4 -12 8 -15 5 -3 9 1 9 9 0 8 -4 15 -9 15 -4 0 -8
-4 -8 -9z"/>
<path d="M1310 322 c0 -6 9 -26 21 -44 17 -28 19 -29 13 -8 -8 30 -34 69 -34
52z"/>
<path d="M1203 305 c-3 -9 -3 -18 -1 -21 3 -3 8 4 11 16 6 23 -1 27 -10 5z"/>
<path d="M1940 315 c0 -5 4 -16 9 -23 6 -11 10 -10 15 4 3 9 4 19 1 22 -3 3
-5 -1 -5 -9 0 -11 -2 -11 -10 1 -5 8 -10 11 -10 5z"/>
<path d="M643 270 c0 -25 2 -35 4 -22 2 12 2 32 0 45 -2 12 -4 2 -4 -23z"/>
<path d="M670 249 c0 -5 5 -7 10 -4 6 3 10 8 10 11 0 2 -4 4 -10 4 -5 0 -10
-5 -10 -11z"/>
<path d="M1174 232 c2 -17 6 -35 9 -39 10 -9 7 28 -3 52 -7 16 -8 13 -6 -13z"/>
<path d="M1215 230 c3 -5 8 -10 11 -10 2 0 4 5 4 10 0 6 -5 10 -11 10 -5 0 -7
-4 -4 -10z"/>
<path d="M1150 211 c0 -25 6 -27 13 -6 4 8 2 17 -3 20 -6 4 -10 -3 -10 -14z"/>
<path d="M780 200 c0 -5 5 -10 10 -10 6 0 10 5 10 10 0 6 -4 10 -10 10 -5 0
-10 -4 -10 -10z"/>
<path d="M1040 195 c-4 -20 2 -70 9 -77 4 -5 5 9 3 30 -4 42 -9 63 -12 47z"/>
<path d="M664 168 c0 -14 3 -15 15 -5 8 7 23 11 34 9 11 -2 17 1 13 7 -11 17
-62 8 -62 -11z"/>
<path d="M745 150 c-9 -16 -13 -30 -11 -30 3 0 12 14 21 30 9 17 13 30 11 30
-3 0 -12 -13 -21 -30z"/>
<path d="M782 150 c0 -19 2 -27 5 -17 2 9 2 25 0 35 -3 9 -5 1 -5 -18z"/>
<path d="M847 173 c-4 -3 -7 -24 -7 -46 0 -31 -3 -38 -15 -33 -21 8 -19 -1 4
-14 18 -9 19 -5 23 45 1 30 3 55 2 55 0 0 -4 -3 -7 -7z"/>
<path d="M1169 163 c6 -12 11 -34 10 -50 0 -15 -3 -22 -6 -15 -2 6 -10 12 -16
12 -8 0 -7 -4 1 -12 7 -7 12 -21 13 -33 0 -20 0 -20 9 0 14 32 11 80 -6 101
-15 18 -15 18 -5 -3z"/>
<path d="M1111 133 c-10 -26 -10 -27 4 -9 8 11 15 23 15 28 0 15 -7 8 -19 -19z"/>
<path d="M881 140 c0 -8 6 -30 13 -48 l12 -33 10 40 c6 22 7 38 3 35 -5 -3 -9
-13 -10 -22 0 -10 -6 -5 -14 13 -8 17 -14 23 -14 15z"/>
<path d="M949 132 c7 -13 6 -23 -2 -32 -10 -12 -9 -12 4 -2 17 13 15 52 -3 52
-5 0 -5 -8 1 -18z"/>
<path d="M973 85 c-6 -19 -8 -35 -4 -35 13 0 30 46 22 59 -5 7 -12 -2 -18 -24z"/>
</g>
</svg>
